<?xml version="1.0" standalone="no"?>
<!DOCTYPE svg PUBLIC "-//W3C//DTD SVG 1.0//EN" "http://www.w3.org/TR/2001/REC-SVG-20010904/DTD/svg10.dtd">
<svg xmlns="http://www.w3.org/2000/svg" xmlns:xlink="http://www.w3.org/1999/xlink" id="body_1" width="256" height="192">

<g transform="matrix(0.375 0 0 0.375 32.000008 -0)">
	<g>
        <path d="M353.34 264.18C 384.41385 257.44632 406.7959 230.25363 407.42953 198.46487C 408.06317 166.67612 386.78247 138.61313 356.00165 130.64655C 325.2208 122.67995 292.9978 136.89528 278.13 165C 283.4641 167.22784 288.54602 170.01688 293.29 173.32C 302.99496 180.1231 311.16992 188.88051 317.29 199.03C 293.38068 163.51048 249.06865 147.78522 208.11761 160.28737C 167.16658 172.78952 139.19357 210.58305 139.2 253.4C 139.2 254.54999 139.2 255.7 139.27 256.84C 113.64972 245.92715 83.97505 251.57526 64.155106 271.1369C 44.335167 290.69858 38.298332 320.29663 48.874187 346.05783C 59.450043 371.81903 84.542404 388.63745 112.39001 388.63L112.39001 388.63L310.52 388.63C 343.8561 388.62524 372.3691 364.66907 378.12082 331.83292C 383.8725 298.99673 365.19974 266.77536 333.84998 255.44C 333.84998 254.76001 333.84998 254.08 333.84998 253.44L333.84998 253.44L333.84998 253.09L346.36996 258.57L353.34 264.18z" stroke="none" fill="#A5C7E9" fill-rule="nonzero" />
	</g>
	<g>
        <path d="M337.92 98.13C 339.80563 98.127365 341.61252 97.373726 342.94113 96.03572C 344.26974 94.697716 345.01065 92.885574 345 91L345 91L345 68.68C 345.0974 66.08533 343.76874 63.64494 341.53653 62.31866C 339.3043 60.99238 336.52567 60.99238 334.29343 62.31866C 332.06122 63.644943 330.73254 66.08533 330.83 68.68L330.83 68.68L330.83 91C 330.81934 92.887314 331.5616 94.70098 332.8924 96.039276C 334.2232 97.37757 336.03265 98.130035 337.92 98.13z" stroke="none" fill="#3F6DB5" fill-rule="nonzero" />
        <path d="M466.51 190L444 190C 441.40527 189.90248 438.9648 191.23114 437.6385 193.4634C 436.31216 195.69565 436.31216 198.47435 437.6385 200.70659C 438.9648 202.93884 441.40527 204.2675 444 204.17L444 204.17L466.55 204.17C 469.1447 204.2675 471.58517 202.93884 472.9115 200.70659C 474.23782 198.47433 474.23782 195.69563 472.9115 193.4634C 471.58517 191.23114 469.1447 189.90248 466.55 190L466.55 190L466.51 190z" stroke="none" fill="#3F6DB5" fill-rule="nonzero" />
        <path d="M412.9 129.19C 414.77646 129.18665 416.57483 128.43852 417.9 127.11L417.9 127.11L449.8 95.22C 452.2279 92.40842 452.07404 88.19951 449.44727 85.57274C 446.8205 82.94598 442.61157 82.79208 439.8 85.22L439.8 85.22L407.90997 117.11C 405.88638 119.136314 405.28046 122.181046 406.3741 124.82771C 407.4678 127.47437 410.04626 129.20325 412.90997 129.21L412.90997 129.21L412.9 129.19z" stroke="none" fill="#3F6DB5" fill-rule="nonzero" />
        <path d="M417.91 267.06C 416.17355 265.04913 413.45856 264.17786 410.87625 264.8028C 408.2939 265.4277 406.2777 267.4439 405.6528 270.02625C 405.0279 272.60855 405.89914 275.32355 407.91 277.06L407.91 277.06L439.78 309C 442.59158 311.42792 446.8005 311.27405 449.42728 308.64728C 452.05405 306.0205 452.20792 301.81158 449.78 299L449.78 299L417.91 267.06z" stroke="none" fill="#3F6DB5" fill-rule="nonzero" />
        <path d="M257.92 127.11C 260.7316 129.53792 264.94052 129.38403 267.5673 126.75726C 270.19406 124.13049 270.34793 119.921585 267.92 117.11L267.92 117.11L236.05 85.2C 233.23842 82.77208 229.02951 82.92597 226.40276 85.552734C 223.77599 88.179504 223.62209 92.38841 226.05 95.2L226.05 95.2L257.92 127.11z" stroke="none" fill="#3F6DB5" fill-rule="nonzero" />
        <path d="M412.71 195C 412.73083 184.57272 410.58554 174.25478 406.41 164.7C 404.84152 161.11014 400.65985 159.47151 397.07 161.04C 393.48016 162.60847 391.84152 166.79015 393.41 170.37999C 400.61148 186.92535 400.19748 205.79611 392.2773 222.00974C 384.35715 238.22336 369.7271 250.14977 352.25 254.63998C 351.84103 254.7423 351.4426 254.8829 351.06 255.05998C 347.24194 252.76254 343.2259 250.81143 339.06 249.22998C 337.70633 212.62773 317.2864 179.40652 285.24 161.66998C 295.32056 146.03069 311.93384 135.78989 330.43488 133.81082C 348.93594 131.83176 367.33948 138.32678 380.5 151.47998C 383.31158 153.9079 387.5205 153.754 390.14728 151.12723C 392.77405 148.50047 392.92792 144.29156 390.5 141.47998C 374.06348 125.04571 350.99045 117.069565 327.9135 119.84442C 304.8366 122.61927 284.31207 135.83774 272.24 155.69998C 260.66257 151.30862 248.38228 149.062 236 149.07C 181.51 149.07 136.76001 192.07 133.12 246.22C 104.75285 239.60228 75.10449 249.8435 56.869602 272.55865C 38.634712 295.2738 35.046547 326.43518 47.64148 352.70032C 60.236404 378.96545 86.78116 395.6772 115.909996 395.68L115.909996 395.68L133.53 395.68C 136.12468 395.7774 138.56506 394.44873 139.89134 392.21652C 141.21762 389.98428 141.21762 387.20566 139.89134 384.97342C 138.56506 382.7412 136.12468 381.41254 133.53 381.50998L133.53 381.50998L115.94 381.50998C 91.31284 381.4957 69.06488 366.80307 59.382393 344.15918C 49.699905 321.51526 54.447018 295.2796 71.45026 277.46423C 88.4535 259.6489 114.439285 253.68376 137.51 262.3C 141.17409 263.6635 145.25107 261.80832 146.62999 258.15C 147.06104 256.98425 147.18166 255.72646 146.98 254.5C 147.04385 254.12665 147.0773 253.74875 147.08 253.37C 147.08 203.67 186.98001 163.23999 236.03 163.23999C 282.03 163.23999 320.56 199.51 324.63 245.23999C 302.6484 241.56021 280.16156 247.7449 263.15347 262.14822C 246.14537 276.55154 236.34122 297.71255 236.35 320C 236.25249 322.59473 237.58115 325.0352 239.8134 326.3615C 242.04565 327.68784 244.82436 327.68784 247.0566 326.3615C 249.28885 325.0352 250.61751 322.59473 250.52 320C 250.52 295.10535 265.51617 272.662 288.51584 263.13522C 311.5155 253.60844 337.98926 258.8744 355.5924 276.47757C 373.19562 294.08075 378.46155 320.5545 368.93478 343.55417C 359.40802 366.5538 336.96466 381.55 312.07 381.55L312.07 381.55L292.44 381.55C 289.84534 381.45258 287.40494 382.78125 286.07867 385.01346C 284.75238 387.2457 284.75238 390.02432 286.07867 392.25656C 287.40494 394.48877 289.84534 395.81744 292.44 395.72L292.44 395.72L312.07 395.72C 342.93463 395.7245 370.71124 376.99023 382.27106 348.37213C 393.83084 319.75406 386.8587 286.9836 364.65002 265.55C 393.67358 254.17892 412.75272 226.17157 412.71 195z" stroke="none" fill="#3F6DB5" fill-rule="nonzero" />
        <path d="M233.21 368.69C 233.11778 368.2386 232.98389 367.7967 232.81001 367.37C 232.62993 366.93982 232.4089 366.5279 232.15001 366.13998C 231.89278 365.7551 231.59799 365.39667 231.27 365.06998C 230.94263 364.73874 230.58055 364.4437 230.19 364.18997C 229.8068 363.92917 229.39803 363.708 228.97 363.52997C 228.54283 363.35745 228.10106 363.22357 227.65 363.12997C 226.73643 362.93994 225.79353 362.93994 224.87999 363.12997C 224.42534 363.2222 223.98012 363.3561 223.54999 363.52997C 223.12196 363.708 222.7132 363.92917 222.32999 364.18997C 221.93944 364.4437 221.57736 364.73874 221.24998 365.06998C 220.922 365.39667 220.62721 365.7551 220.36998 366.13998C 220.11046 366.5259 219.89258 366.9382 219.71999 367.37C 219.53838 367.79477 219.40099 368.2371 219.30998 368.69C 219.21887 369.14777 219.17198 369.61325 219.16998 370.08002C 219.1665 372.44965 220.35371 374.66254 222.32999 375.97003C 222.71573 376.2239 223.12413 376.4415 223.54999 376.62003C 223.97852 376.79837 224.42416 376.9324 224.87999 377.02002C 225.33357 377.11655 225.7963 377.1635 226.26 377.16003C 226.72699 377.16296 227.19296 377.11603 227.65 377.02002C 228.10223 376.93103 228.54443 376.79706 228.97 376.62003C 229.39586 376.4415 229.80426 376.2239 230.19 375.97003C 230.57593 375.71002 230.93741 375.41547 231.27 375.09003C 232.59209 373.76053 233.33907 371.96494 233.35 370.09003C 233.34863 369.61993 233.30176 369.15106 233.21 368.69z" stroke="none" fill="#3F6DB5" fill-rule="nonzero" />
        <path d="M220.6 381.32C 217.10378 379.56738 212.84866 380.9768 211.09001 384.47L211.09001 384.47L189.76001 426.88C 188.00098 430.37872 189.41129 434.641 192.91 436.4C 196.40872 438.15903 200.67097 436.74872 202.43001 433.25L202.43001 433.25L223.75 390.84C 224.59486 389.15988 224.73764 387.21295 224.14688 385.42755C 223.55614 383.64215 222.28026 382.1646 220.6 381.32z" stroke="none" fill="#3F6DB5" fill-rule="nonzero" />
        <path d="M237.31 423.12C 236.85567 423.21362 236.41057 423.3475 235.98 423.52C 235.55516 423.70065 235.14693 423.91815 234.76 424.16998C 232.78236 425.47937 231.59305 427.69318 231.59305 430.065C 231.59305 432.43683 232.78236 434.65063 234.76 435.96C 235.5347 436.47253 236.40022 436.83234 237.31 437.02C 240.12556 437.58798 243.00565 436.4011 244.60356 434.0143C 246.20149 431.62753 246.20149 428.51248 244.60356 426.1257C 243.00565 423.73892 240.12556 422.55203 237.31 423.12z" stroke="none" fill="#3F6DB5" fill-rule="nonzero" />
        <path d="M272 363.74C 270.31985 362.89514 268.37292 362.75238 266.58752 363.3431C 264.80212 363.93387 263.3246 365.20975 262.48 366.88998L262.48 366.88998L241.2 409.3C 239.59494 412.7713 241.03229 416.89005 244.44864 418.609C 247.86499 420.32797 252.02899 419.02762 253.86 415.66998L253.86 415.66998L275.18 373.25998C 276.0227 371.5762 276.16104 369.62634 275.5645 367.84045C 274.96796 366.05453 273.68552 364.57928 272 363.74z" stroke="none" fill="#3F6DB5" fill-rule="nonzero" />
        <path d="M160.24 427.36C 160.05946 426.9319 159.84198 426.52032 159.59001 426.12997C 159.32964 425.74463 159.0315 425.3862 158.70001 425.05997C 157.0223 423.3957 154.6298 422.6693 152.31001 423.11996C 151.8557 423.21356 151.4106 423.34744 150.98001 423.51996C 150.55518 423.70065 150.14694 423.91815 149.76001 424.16995C 149.37158 424.43036 149.00983 424.72845 148.68001 425.05997C 148.35466 425.38907 148.0601 425.74722 147.8 426.12997C 147.54803 426.52032 147.33055 426.9319 147.15001 427.36C 146.97163 427.78503 146.83759 428.2274 146.75002 428.68C 146.654 429.13702 146.60707 429.60303 146.61002 430.07C 146.61723 431.94373 147.36069 433.7395 148.68002 435.07C 149.01263 435.39545 149.37411 435.69 149.76003 435.95C 150.14696 436.20184 150.55519 436.41934 150.98003 436.6C 151.409 436.77707 151.85452 436.91107 152.31003 437C 152.76367 437.09607 153.22635 437.143 153.69003 437.14C 155.56949 437.14267 157.37288 436.39792 158.7028 435.0699C 160.03273 433.74185 160.78003 431.93948 160.78003 430.06003C 160.77803 429.59326 160.73114 429.12778 160.64003 428.67C 160.55179 428.22083 160.41776 427.78186 160.24 427.36z" stroke="none" fill="#3F6DB5" fill-rule="nonzero" />
        <path d="M187 363.74C 185.31987 362.89514 183.37292 362.75238 181.58752 363.3431C 179.80214 363.93387 178.32458 365.20975 177.48 366.88998L177.48 366.88998L156.2 409.3C 154.59494 412.7713 156.03229 416.89005 159.44864 418.609C 162.86499 420.32797 167.02899 419.02762 168.86 415.66998L168.86 415.66998L190.18 373.25998C 191.02274 371.5762 191.16107 369.62634 190.56451 367.84045C 189.96797 366.05453 188.68552 364.57928 187 363.74z" stroke="none" fill="#3F6DB5" fill-rule="nonzero" />
	</g>
</g>
</svg>
